{"title":"Rio - I'm So Fresh ft Tommy Redding E-40 -2011(UJ.rip)","uid":6512346,"size":66152865,"categoryP":"video","categoryS":"music_videos","magnet":"?xt=urn:btih:5714ccc9d9e94217f7f2acbc76ff9637c886bf42&amp;dn=Rio+-+I%5C%27m+So+Fresh+ft+Tommy+Redding+E-40+-2011%28UJ.rip%29&amp;tr=udp%3A%2F%2Ftracker.openbittorrent.com%3A80&amp;tr=udp%3A%2F%2Fopen.demonii.com%3A1337&amp;tr=udp%3A%2F%2Ftracker.coppersurfer.tk%3A6969&amp;tr=udp%3A%2F%2Fexodus.desync.com%3A6969","seeders":0,"leechers":1,"uploader":"utpaljoshi123","files":40,"time":1309684372,"description":"Rio - I'm So Fresh ft Tommy Redding E-40 -2011 (UJ.rip)\n--------------------------------------------------------------\n\nGeneral\nComplete name                    : Rio - I'm So Fresh ft Tommy Redding E-40 (UJ.rip).avi\nFormat                           : AVI\nFormat/Info                      : Audio Video Interleave\nFile size                        : 62.1 MiB\nDuration                         : 4mn 4s\nOverall bit rate                 : 2 131 Kbps\nWriting application              : Lavf52.39.1\n\nVideo\nID                               : 0\nFormat                           : MPEG-4 Visual\nFormat profile                   : Advanced Simple@L1\nFormat settings, BVOP            : 2\nFormat settings, QPel            : No\nFormat settings, GMC             : No warppoints\nFormat settings, Matrix          : Default (H.263)\nCodec ID                         : divx\nCodec ID/Info                    : Mainly used by Google\nCodec ID/Hint                    : DivX\nDuration                         : 4mn 4s\nBit rate                         : 2 054 Kbps\nWidth                            : 720 pixels\nHeight                           : 480 pixels\nDisplay aspect ratio             : 4:3\nFrame rate                       : 24.000 fps\nStandard                         : NTSC\nColor space                      : YUV\nChroma subsampling               : 4:2:0\nBit depth                        : 8 bits\nScan type                        : Progressive\nCompression mode                 : Lossy\nBits/(Pixel*Frame)               : 0.248\nStream size                      : 59.8 MiB (96%)\nWriting library                  : Lavc52.37.0\n\nAudio\nID                               : 1\nFormat                           : MPEG Audio\nFormat version                   : Version 1\nFormat profile                   : Layer 3\nMode                             : Joint stereo\nMode extension                   : MS Stereo\nCodec ID                         : 55\nCodec ID/Hint                    : MP3\nDuration                         : 4mn 4s\nBit rate mode                    : Constant\nBit rate                         : 64.0 Kbps\nChannel(s)                       : 2 channels\nSampling rate                    : 44.1 KHz\nCompression mode                 : Lossy\nStream size                      : 1.86 MiB (3%)\nAlignment                        : Aligned on interleaves\nInterleave, duration             : 26 ms (0.63 video frame)\nWriting library                  : LAMEUUULAME3.96.1\n\n--------------------------------------------------------------\n-------------------------------------------------------------- &lt;a href=&quot;\nhttp://thepiratebay.se/user/utpaljoshi123&quot; rel=&quot;nofollow&quot; target=&quot;_NEW&quot;&gt;\nhttp://thepiratebay.se/user/utpaljoshi123&lt;/a&gt;\n--------------------------------------------------------------","torrent":{"xt":"urn:btih:5714ccc9d9e94217f7f2acbc76ff9637c886bf42","amp;dn":"Rio+-+I%5C%27m+So+Fresh+ft+Tommy+Redding+E-40+-2011%28UJ.rip%29","amp;tr":["udp%3A%2F%2Ftracker.openbittorrent.com%3A80","udp%3A%2F%2Fopen.demonii.com%3A1337","udp%3A%2F%2Ftracker.coppersurfer.tk%3A6969","udp%3A%2F%2Fexodus.desync.com%3A6969"],"infoHash":"5714ccc9d9e94217f7f2acbc76ff9637c886bf42","infoHashBuffer":{"type":"Buffer","data":[87,20,204,201,217,233,66,23,247,242,172,188,118,255,150,55,200,134,191,66]},"announce":[],"urlList":[]}}